<?xml version="1.0" standalone="no"?>
<!DOCTYPE svg PUBLIC "-//W3C//DTD SVG 20010904//EN"
 "http://www.w3.org/TR/2001/REC-SVG-20010904/DTD/svg10.dtd">
<svg version="1.0" xmlns="http://www.w3.org/2000/svg"
 width="1024.000000pt" height="1024.000000pt" viewBox="0 0 1024.000000 1024.000000"
 preserveAspectRatio="xMidYMid meet">

<g transform="translate(0.000000,1024.000000) scale(0.100000,-0.100000)"
fill="#000000" stroke="none">
<path d="M6589 7082 c-21 -15 -21 -17 -15 -336 3 -176 7 -829 8 -1451 2 -621
5 -1294 8 -1493 l5 -364 25 -20 c24 -19 34 -20 440 -13 451 7 583 15 729 46
112 24 259 90 389 175 107 69 260 221 332 328 140 209 231 480 277 822 24 185
24 737 0 913 -83 588 -286 987 -616 1210 -88 60 -201 118 -261 134 -205 57
-360 68 -872 66 -360 -2 -431 -4 -449 -17z m976 -597 c108 -23 189 -68 278
-156 66 -66 84 -91 126 -180 97 -207 145 -460 157 -827 10 -282 -18 -569 -76
-795 -54 -209 -164 -349 -345 -438 -110 -54 -179 -69 -310 -69 l-112 0 -6
1231 c-4 677 -5 1235 -2 1240 9 14 213 10 290 -6z"/>
<path d="M1683 7082 c-87 -2 -124 -6 -132 -16 -9 -10 -9 -347 -1 -1287 5 -701
10 -1514 10 -1807 l0 -533 26 -26 26 -26 431 7 c606 10 744 26 925 111 112 53
265 153 345 225 138 125 299 387 367 600 42 130 87 355 106 535 20 190 14 658
-11 835 -42 298 -135 595 -250 791 -150 257 -419 476 -661 538 -188 48 -258
54 -669 55 -214 1 -445 0 -512 -2z m838 -602 c30 -5 96 -31 147 -56 75 -38
105 -60 158 -117 122 -132 199 -335 246 -652 29 -193 32 -680 5 -855 -26 -166
-73 -353 -107 -425 -113 -236 -326 -365 -602 -365 l-108 0 0 393 c-1 215 -5
770 -10 1232 -4 462 -6 843 -4 847 7 11 212 10 275 -2z"/>
<path d="M4070 7075 c-10 -12 -11 -219 -1 -1053 6 -570 11 -1385 11 -1809 l0
-773 21 -21 c21 -21 23 -21 498 -16 288 3 505 10 550 17 201 32 369 97 536
210 209 141 371 357 481 640 191 497 187 1440 -10 1967 -81 215 -186 385 -325
523 -145 145 -302 240 -459 280 -177 44 -258 50 -788 50 -437 0 -503 -2 -514
-15z m1027 -604 c137 -47 261 -145 332 -265 177 -297 244 -1018 142 -1534 -16
-81 -39 -176 -51 -212 -97 -290 -350 -459 -670 -448 l-85 3 -3 1230 c-1 677 0
1236 3 1244 9 22 252 9 332 -18z"/>
</g>
</svg>
